<?xml version="1.0" encoding="UTF-8" standalone="no"?>
<svg
   xmlns:dc="http://purl.org/dc/elements/1.1/"
   xmlns:cc="http://creativecommons.org/ns#"
   xmlns:rdf="http://www.w3.org/1999/02/22-rdf-syntax-ns#"
   xmlns:svg="http://www.w3.org/2000/svg"
   xmlns="http://www.w3.org/2000/svg"
   xmlns:sodipodi="http://sodipodi.sourceforge.net/DTD/sodipodi-0.dtd"
   xmlns:inkscape="http://www.inkscape.org/namespaces/inkscape"
   sodipodi:docname="icon.svg"
   inkscape:version="1.0 (6e3e5246a0, 2020-05-07)"
   id="svg8"
   version="1.1"
   viewBox="0 0 141.29767 80.51972"
   height="80.519722mm"
   width="141.29767mm">
  <defs
     id="defs2">
    <filter
       id="filter5306"
       inkscape:label="Drop Shadow"
       style="color-interpolation-filters:sRGB">
      <feFlood
         id="feFlood5296"
         result="flood"
         flood-color="rgb(0,0,0)"
         flood-opacity="0.254902" />
      <feComposite
         id="feComposite5298"
         result="composite1"
         operator="in"
         in2="SourceGraphic"
         in="flood" />
      <feGaussianBlur
         id="feGaussianBlur5300"
         result="blur"
         stdDeviation="0"
         in="composite1" />
      <feOffset
         id="feOffset5302"
         result="offset"
         dy="1.8"
         dx="-1.8" />
      <feComposite
         id="feComposite5304"
         result="composite2"
         operator="over"
         in2="offset"
         in="SourceGraphic" />
    </filter>
    <filter
       id="filter5399"
       inkscape:label="Drop Shadow"
       style="color-interpolation-filters:sRGB">
      <feFlood
         id="feFlood5389"
         result="flood"
         flood-color="rgb(0,0,0)"
         flood-opacity="0.254902" />
      <feComposite
         id="feComposite5391"
         result="composite1"
         operator="in"
         in2="SourceGraphic"
         in="flood" />
      <feGaussianBlur
         id="feGaussianBlur5393"
         result="blur"
         stdDeviation="0"
         in="composite1" />
      <feOffset
         id="feOffset5395"
         result="offset"
         dy="1.8"
         dx="-1.8" />
      <feComposite
         id="feComposite5397"
         result="composite2"
         operator="over"
         in2="offset"
         in="SourceGraphic" />
    </filter>
  </defs>
  <sodipodi:namedview
     fit-margin-bottom="12"
     fit-margin-right="0"
     fit-margin-left="0"
     fit-margin-top="12"
     lock-margins="false"
     inkscape:document-rotation="0"
     inkscape:window-maximized="1"
     inkscape:window-y="27"
     inkscape:window-x="0"
     inkscape:window-height="1016"
     inkscape:window-width="1920"
     showgrid="false"
     inkscape:current-layer="layer1"
     inkscape:document-units="mm"
     inkscape:cy="170.88704"
     inkscape:cx="284.64724"
     inkscape:zoom="0.98994949"
     inkscape:pageshadow="2"
     inkscape:pageopacity="0.0"
     borderopacity="1.0"
     bordercolor="#666666"
     pagecolor="#ffffff"
     id="base" />
  <metadata
     id="metadata5">
    <rdf:RDF>
      <cc:Work
         rdf:about="">
        <dc:format>image/svg+xml</dc:format>
        <dc:type
           rdf:resource="http://purl.org/dc/dcmitype/StillImage" />
        <dc:title></dc:title>
      </cc:Work>
    </rdf:RDF>
  </metadata>
  <g
     transform="translate(-34.351167,-5.7986163)"
     id="layer1"
     inkscape:groupmode="layer"
     inkscape:label="Livello 1">
    <g
       transform="translate(-3.7353202e-6,6.5831106)"
       style="filter:url(#filter5306)"
       id="g4550">
      <g
         aria-label="WHERE'S"
         transform="matrix(0.26458333,0,0,0.26458333,46.412747,-4.543582)"
         style="font-style:normal;font-variant:normal;font-weight:normal;font-stretch:normal;font-size:40px;line-height:1.25;font-family:'Optima Extra Black';-inkscape-font-specification:'Optima Extra Black, ';text-align:center;letter-spacing:0px;word-spacing:0px;text-anchor:middle;fill:#01a7e5;fill-opacity:1;stroke:#000000;stroke-width:2.83465;stroke-miterlimit:4;stroke-dasharray:none;stroke-opacity:1"
         id="flowRoot3713">
        <path
           d="m 33.764141,119.12339 c -4.32,-13.92 -7.872,-27.167996 -10.368,-40.799996 -3.744,0.384 -7.968,0.864 -12.288,0.864 -3.3600004,0 -8.1600004,-0.288 -12.1920004,-0.864 2.01600003,5.76 3.936,11.52 5.76,17.28 3.168,9.983996 6.3360004,19.967996 9.3120004,29.951996 2.112,7.104 4.224,14.304 5.856,21.504 2.112,-0.48 5.088,-0.864 7.296,-0.864 2.304,0 4.704,0.384 6.912,0.864 1.248,-6.624 6.336,-20.256 8.64,-27.264 1.152,-3.456 2.4,-6.912 3.648,-10.368 1.344,4.128 2.592,8.256 3.936,12.384 2.784,8.448 5.76,16.8 8.256,25.248 2.496,-0.48 4.224,-0.864 6.72,-0.864 2.592,0 4.416,0.384 7.008,0.864 3.168,-11.52 5.088,-18.24 10.08,-33.696 3.168,-9.792 8.832,-26.687996 12.384,-35.039996 -2.016,0.576 -3.744,0.864 -6.144,0.864 -1.92,0 -3.936,-0.288 -6.432,-0.864 -1.44,5.184 -2.4,10.656 -3.84,15.936 -1.92,7.103996 -4.416,16.415996 -6.144,21.983996 l -0.96,3.072 c -4.608,-12.096 -9.12,-28.127996 -11.712,-40.991996 -2.112,0.672 -4.416,0.864 -6.624,0.864 -2.208,0 -4.416,-0.288 -6.624,-0.864 -3.648,13.824 -6.912,24.575996 -11.424,37.727996 z"
           style="font-size:96px;text-align:center;text-anchor:middle;fill:#01a7e5;fill-opacity:1;stroke:#000000;stroke-width:2.83465;stroke-miterlimit:4;stroke-dasharray:none;stroke-opacity:1"
           id="path5413" />
        <path
           d="m 102.11614,115.37939 c 0,8.832 -0.192,21.216 -0.672,26.88 l -0.384,4.8 c 3.264,-0.48 6.72,-0.864 11.52,-0.864 4.032,0 8.064,0.192 12,0.864 -0.864,-8.448 -0.96,-25.056 -0.96,-31.872 3.264,-0.096 7.296,-0.192 10.56,-0.192 3.552,0 7.2,0.192 10.656,0.192 0,6.624 -0.096,23.328 -1.152,31.872 3.648,-0.48 7.296,-0.864 11.04,-0.864 4.224,0 8.448,0.288 12.576,0.864 -0.576,-13.92 -0.96,-23.904 -0.96,-41.28 0,-11.327996 0.288,-19.487996 1.056,-27.455996 -3.36,0.48 -8.256,0.864 -11.808,0.864 -3.552,0 -8.352,-0.48 -11.808,-0.864 0.864,8.736 1.056,19.584 1.056,27.263996 -3.552,0 -7.392,0.192 -10.752,0.192 -3.84,0 -7.584,-0.096 -10.464,-0.192 0,-7.391996 0.192,-18.239996 1.056,-27.263996 -3.36,0.48 -8.256,0.864 -11.808,0.864 -3.648,0 -8.352,-0.48 -11.808,-0.864 0.672,6.24 0.864,11.52 0.864,15.84 0,3.072 0.192,17.855996 0.192,21.215996 z"
           style="font-size:96px;text-align:center;text-anchor:middle;fill:#01a7e5;fill-opacity:1;stroke:#000000;stroke-width:2.83465;stroke-miterlimit:4;stroke-dasharray:none;stroke-opacity:1"
           id="path5415" />
        <path
           d="m 203.77864,115.37939 c 9.984,0 15.744,0.288 23.52,0.864 -0.192,-1.632 -0.48,-3.552 -0.48,-5.184 0,-1.728 0.192,-3.36 0.48,-5.088 -10.848,0.672 -20.352,0.96 -23.52,0.96 V 88.115394 h 10.08 c 4.704,0 9.504,0.384 14.304,0.672 -0.192,-1.824 -0.48,-3.552 -0.48,-5.376 0,-1.728 0.288,-3.36 0.48,-5.088 -6.816,0.768 -19.488,0.864 -26.88,0.864 -6.624,0 -13.344,-0.384 -19.968,-0.864 0.672,10.464 0.96,15.072 0.96,35.231996 0,24.192 -0.192,26.88 -0.768,33.504 7.776,-0.672 15.648,-0.864 23.424,-0.864 7.68,0 15.456,0.192 23.232,0.864 -0.288,-1.536 -0.48,-3.264 -0.48,-4.896 0,-1.824 0.288,-3.648 0.48,-5.472 -4.224,0.192 -14.016,0.672 -17.664,0.672 h -6.72 z"
           style="font-size:96px;text-align:center;text-anchor:middle;fill:#01a7e5;fill-opacity:1;stroke:#000000;stroke-width:2.83465;stroke-miterlimit:4;stroke-dasharray:none;stroke-opacity:1"
           id="path5417" />
        <path
           d="m 283.20214,113.55539 c 9.024,-1.92 15.264,-7.104 15.264,-16.799996 0,-15.744 -14.4,-18.432 -27.168,-18.432 -6.144,0 -12.192,0.864 -18.336,0.864 -4.128,0 -8.64,-0.192 -13.056,-0.864 0.672,17.088 0.96,35.039996 0.96,43.391996 0,9.216 -0.576,18.816 -1.152,25.344 4.32,-0.48 8.256,-0.864 11.808,-0.864 3.936,0 7.68,0.384 11.328,0.864 -0.48,-9.888 -0.672,-21.312 -0.672,-29.664 h 0.288 c 5.952,9.888 11.136,19.872 16.224,29.664 4.224,-0.48 7.872,-0.864 12.192,-0.864 4.512,0 9.024,0.384 13.44,0.864 -6.144,-8.736 -13.632,-20.928 -19.008,-29.952 z m -21.024,-27.167996 c 1.056,-0.096 2.016,-0.192 3.072,-0.192 4.608,0 11.136,0.864 11.136,11.616 0,7.391996 -2.784,12.191996 -10.656,12.191996 -1.152,0 -2.304,0 -3.552,-0.192 z"
           style="font-size:96px;text-align:center;text-anchor:middle;fill:#01a7e5;fill-opacity:1;stroke:#000000;stroke-width:2.83465;stroke-miterlimit:4;stroke-dasharray:none;stroke-opacity:1"
           id="path5419" />
        <path
           d="m 333.52864,115.37939 c 9.984,0 15.744,0.288 23.52,0.864 -0.192,-1.632 -0.48,-3.552 -0.48,-5.184 0,-1.728 0.192,-3.36 0.48,-5.088 -10.848,0.672 -20.352,0.96 -23.52,0.96 V 88.115394 h 10.08 c 4.704,0 9.504,0.384 14.304,0.672 -0.192,-1.824 -0.48,-3.552 -0.48,-5.376 0,-1.728 0.288,-3.36 0.48,-5.088 -6.816,0.768 -19.488,0.864 -26.88,0.864 -6.624,0 -13.344,-0.384 -19.968,-0.864 0.672,10.464 0.96,15.072 0.96,35.231996 0,24.192 -0.192,26.88 -0.768,33.504 7.776,-0.672 15.648,-0.864 23.424,-0.864 7.68,0 15.456,0.192 23.232,0.864 -0.288,-1.536 -0.48,-3.264 -0.48,-4.896 0,-1.824 0.288,-3.648 0.48,-5.472 -4.224,0.192 -14.016,0.672 -17.664,0.672 h -6.72 z"
           style="font-size:96px;text-align:center;text-anchor:middle;fill:#01a7e5;fill-opacity:1;stroke:#000000;stroke-width:2.83465;stroke-miterlimit:4;stroke-dasharray:none;stroke-opacity:1"
           id="path5421" />
        <path
           d="m 379.83214,110.29139 5.088,-31.967996 h -15.936 l 5.088,31.967996 z"
           style="font-size:96px;text-align:center;text-anchor:middle;fill:#01a7e5;fill-opacity:1;stroke:#000000;stroke-width:2.83465;stroke-miterlimit:4;stroke-dasharray:none;stroke-opacity:1"
           id="path5423" />
        <path
           d="m 398.54014,128.14739 c -0.48,7.104 -1.152,10.272 -2.304,15.648 7.68,2.688 12.768,4.128 21.12,4.128 15.168,0 26.592,-7.488 26.592,-23.52 0,-9.216 -3.456,-15.36 -12,-19.104 l -7.392,-3.264 c -7.008,-3.071996 -12.384,-4.703996 -12.384,-9.599996 0,-4.992 5.856,-6.912 9.984,-6.912 6.816,0 11.328,4.704 12.384,10.272 h 3.84 c 0.384,-4.512 1.824,-9.984 3.744,-14.304 -6.432,-2.4 -13.344,-4.128 -20.256,-4.128 -14.112,0 -25.536,7.296 -25.536,22.56 0,9.695996 5.952,16.511996 14.496,20.063996 12.768,5.28 16.512,7.488 16.512,12.096 0,5.088 -5.184,6.912 -9.696,6.912 -7.392,0 -13.92,-4.224 -15.168,-10.848 z"
           style="font-size:96px;text-align:center;text-anchor:middle;fill:#01a7e5;fill-opacity:1;stroke:#000000;stroke-width:2.83465;stroke-miterlimit:4;stroke-dasharray:none;stroke-opacity:1"
           id="path5425" />
      </g>
      <g
         aria-label="WALLY?"
         transform="matrix(0.26458333,0,0,0.26458333,35.429528,-13.661633)"
         style="font-style:normal;font-variant:normal;font-weight:normal;font-stretch:normal;font-size:96px;line-height:1.25;font-family:'Optima Extra Black';-inkscape-font-specification:'Optima Extra Black, ';text-align:center;letter-spacing:0px;word-spacing:0px;text-anchor:middle;fill:#ed3e36;fill-opacity:0.996078;stroke:#000000;stroke-width:2.83465;stroke-miterlimit:4;stroke-dasharray:none;stroke-opacity:1"
         id="flowRoot3721">
        <path
           d="m 83.053292,254.64019 c -5.280001,-17.01334 -9.621335,-33.20534 -12.672001,-49.86667 -4.576001,0.46933 -9.738668,1.056 -15.018668,1.056 -4.106667,0 -9.973335,-0.352 -14.901335,-1.056 2.464,7.04 4.810667,14.08 7.040001,21.12 3.872,12.20267 7.744,24.40533 11.381334,36.608 2.581333,8.68267 5.162667,17.48267 7.157334,26.28267 2.581333,-0.58667 6.218667,-1.056 8.917334,-1.056 2.816,0 5.749334,0.46933 8.448001,1.056 1.525333,-8.096 7.744,-24.75734 10.560001,-33.32267 1.408,-4.224 2.933333,-8.448 4.458667,-12.672 1.64267,5.04533 3.168,10.09067 4.81067,15.136 3.40266,10.32533 7.04,20.53334 10.09066,30.85867 3.05067,-0.58667 5.16267,-1.056 8.21334,-1.056 3.168,0 5.39733,0.46933 8.56533,1.056 3.872,-14.08 6.21867,-22.29334 12.32,-41.184 3.872,-11.968 10.79467,-32.61867 15.136,-42.82667 -2.464,0.704 -4.576,1.056 -7.50933,1.056 -2.34667,0 -4.81067,-0.352 -7.86133,-1.056 -1.76,6.336 -2.93334,13.024 -4.69334,19.47733 -2.34666,8.68267 -5.39733,20.064 -7.50933,26.86934 l -1.17333,3.75466 c -5.632,-14.784 -11.14667,-34.37867 -14.31467,-50.10133 -2.58134,0.82133 -5.39734,1.056 -8.096,1.056 -2.69867,0 -5.39734,-0.352 -8.096004,-1.056 -4.458667,16.896 -8.448,30.03733 -13.962668,46.112 z"
           style="font-size:117.333px;fill:#ed3e36;fill-opacity:0.996078;stroke:#000000;stroke-width:2.83465;stroke-miterlimit:4;stroke-dasharray:none;stroke-opacity:1"
           id="path5428" />
        <path
           d="m 168.7983,272.00552 c 4.10666,0 8.21333,-0.11733 12.32,-0.11733 5.16267,0 10.32533,0.11733 15.488,0.11733 1.99467,5.51467 3.63733,10.912 5.16267,16.77867 5.04533,-0.58667 10.09066,-1.056 15.136,-1.056 4.69333,0 10.79467,0.11733 15.37067,1.056 -6.57067,-14.19733 -9.504,-21.70667 -16.19201,-38.368 -5.74933,-14.432 -13.25866,-34.96534 -16.77866,-46.11201 -2.58134,0.58667 -5.51467,1.056 -8.33067,1.056 -2.69867,0 -5.51467,-0.46933 -8.21333,-1.056 -1.408,3.872 -7.27467,19.59467 -10.79467,28.27734 -6.21867,15.25333 -12.672,31.328 -17.01334,40.59734 l -7.27466,15.60533 c 2.58133,-0.58667 5.16266,-1.056 7.86133,-1.056 2.816,0 5.28,0.46933 7.97867,1.056 1.64266,-5.632 3.168,-11.264 5.28,-16.77867 z m 24.05333,-10.56 c -3.40266,0.11733 -6.92266,0.11733 -10.32533,0.11733 -3.40267,0 -6.80534,0 -10.32534,-0.11733 l 10.56001,-27.33867 z"
           style="font-size:117.333px;fill:#ed3e36;fill-opacity:0.996078;stroke:#000000;stroke-width:2.83465;stroke-miterlimit:4;stroke-dasharray:none;stroke-opacity:1"
           id="path5430" />
        <path
           d="m 269.19531,276.93352 c 0,-3.75466 -0.23467,-22.41067 -0.23467,-26.63467 0,-7.86133 0.23467,-35.43467 1.17334,-45.52533 -4.69334,0.82133 -9.03467,1.056 -13.84534,1.056 -5.04533,0 -10.09066,-0.352 -15.01866,-1.056 0.82133,6.10133 0.82133,14.19733 1.056,21.35466 0.352,10.91201 0.58666,19.82934 0.58666,34.84801 0,7.27466 0,18.656 -1.76,27.808 11.616,-0.82133 23.232,-1.056 31.56267,-1.056 7.62667,0 14.90134,0.23467 24.75734,1.056 -0.352,-1.99467 -0.58667,-4.224 -0.58667,-6.45333 0,-2.816 0.352,-5.04534 0.58667,-6.80534 -7.392,1.17334 -25.10934,1.408 -28.27734,1.408 z"
           style="font-size:117.333px;fill:#ed3e36;fill-opacity:0.996078;stroke:#000000;stroke-width:2.83465;stroke-miterlimit:4;stroke-dasharray:none;stroke-opacity:1"
           id="path5432" />
        <path
           d="m 336.57031,276.93352 c 0,-3.75466 -0.23467,-22.41067 -0.23467,-26.63467 0,-7.86133 0.23467,-35.43467 1.17334,-45.52533 -4.69334,0.82133 -9.03467,1.056 -13.84534,1.056 -5.04533,0 -10.09066,-0.352 -15.01866,-1.056 0.82133,6.10133 0.82133,14.19733 1.056,21.35466 0.352,10.91201 0.58666,19.82934 0.58666,34.84801 0,7.27466 0,18.656 -1.76,27.808 11.616,-0.82133 23.232,-1.056 31.56267,-1.056 7.62667,0 14.90134,0.23467 24.75734,1.056 -0.352,-1.99467 -0.58667,-4.224 -0.58667,-6.45333 0,-2.816 0.352,-5.04534 0.58667,-6.80534 -7.392,1.17334 -25.10934,1.408 -28.27734,1.408 z"
           style="font-size:117.333px;fill:#ed3e36;fill-opacity:0.996078;stroke:#000000;stroke-width:2.83465;stroke-miterlimit:4;stroke-dasharray:none;stroke-opacity:1"
           id="path5434" />
        <path
           d="m 410.76899,251.58952 1.64267,-3.168 c 7.62666,-14.66667 15.25333,-29.45067 24.17067,-43.648 -2.112,0.58666 -5.28001,1.056 -8.21334,1.056 -2.69867,0 -5.39733,-0.58667 -7.97867,-1.056 -4.224,11.73333 -9.38666,23.11466 -14.90133,34.26133 -10.44267,-20.88533 -13.024,-26.048 -15.95734,-34.26133 -3.98933,0.82133 -9.73866,1.056 -14.784,1.056 -5.16266,0 -10.912,-0.23467 -16.66133,-1.056 3.98933,6.92266 7.86133,13.728 11.85067,20.768 4.45866,7.86133 8.33066,15.488 12.32,23.232 1.64266,3.168 2.58133,4.928 2.58133,6.10133 0,4.69334 -0.352,22.64534 -1.17333,33.90934 4.81066,-0.58667 9.504,-1.056 14.31467,-1.056 3.872,0 8.448,0.11733 14.08,1.056 -1.056,-9.03467 -1.52534,-18.18667 -1.52534,-27.33867 0,-3.28533 0.11734,-6.57067 0.23467,-9.856 z"
           style="font-size:117.333px;fill:#ed3e36;fill-opacity:0.996078;stroke:#000000;stroke-width:2.83465;stroke-miterlimit:4;stroke-dasharray:none;stroke-opacity:1"
           id="path5436" />
        <path
           d="m 476.30516,251.00285 c -1.17334,0.93867 -2.81601,2.22934 -5.98401,2.22934 -2.93333,0 -4.81066,-1.76 -4.81066,-4.45867 0,-3.40267 4.81066,-5.74933 9.62133,-9.62133 7.86134,-6.336 10.32534,-9.26934 10.32534,-16.42667 0,-9.504 -8.33067,-19.008 -24.40534,-19.008 -7.62667,0 -12.43733,1.99466 -19.82933,4.576 0.82133,4.576 0.93866,7.50933 1.056,12.08533 h 2.816 c 2.58133,-5.51467 7.392,-7.27467 11.38133,-7.27467 3.63733,0 6.45333,2.464 6.45333,5.51467 0,3.63733 -2.69866,5.39733 -5.16266,7.744 -6.21867,5.86667 -11.264,9.26934 -11.264,18.18667 0,6.21867 4.69333,15.60533 20.53333,15.60533 3.40267,0 5.74933,-0.352 8.096,-0.82133 0.704,-2.464 1.52534,-4.928 2.58134,-7.392 z m -1.64267,26.63467 c 0,-6.57066 -5.51467,-12.20267 -12.20267,-12.20267 -6.688,0 -12.20267,5.63201 -12.20267,12.20267 0,6.688 5.51467,12.20267 12.20267,12.20267 6.688,0 12.20267,-5.51467 12.20267,-12.20267 z"
           style="font-size:117.333px;fill:#ed3e36;fill-opacity:0.996078;stroke:#000000;stroke-width:2.83465;stroke-miterlimit:4;stroke-dasharray:none;stroke-opacity:1"
           id="path5438" />
      </g>
    </g>
    <flowRoot
       transform="scale(0.26458333)"
       style="font-style:normal;font-variant:normal;font-weight:normal;font-stretch:normal;font-size:40px;line-height:1.25;font-family:'Optima Extra Black';-inkscape-font-specification:'Optima Extra Black, ';letter-spacing:0px;word-spacing:0px;fill:#000000;fill-opacity:1;stroke:none"
       id="flowRoot3729"
       xml:space="preserve"><flowRegion
         id="flowRegion3731"><rect
           y="134.5905"
           x="255.56859"
           height="348.50262"
           width="182.83762"
           id="rect3733" /></flowRegion><flowPara
         id="flowPara3735" /></flowRoot>
  </g>
</svg>
